<?xml version="1.0" encoding="UTF-8"?>
<svg width="215px" height="100px" viewBox="0 0 215 100" version="1.1" xmlns="http://www.w3.org/2000/svg" xmlns:xlink="http://www.w3.org/1999/xlink">
    <!-- Generator: Sketch 41.2 (35397) - http://www.bohemiancoding.com/sketch -->
    <title>logo</title>
    <desc>Created with Sketch.</desc>
    <defs>
        <polygon id="path-1" points="52.5 100 0 100 0 0 52.5 0 105 0 105 100"></polygon>
    </defs>
    <g id="Symbols" stroke="none" stroke-width="1" fill="none" fill-rule="evenodd">
        <g id="layout/header---logo2" transform="translate(-100.000000, -100.000000)">
            <g id="logo" transform="translate(100.000000, 100.000000)">
                <g>
                    <g id="Group-3">
                        <mask id="mask-2" fill="white">
                            <use xlink:href="#path-1"></use>
                        </mask>
                        <g id="Clip-2"></g>
                        <path d="M52.5,100 C23.623,100 0.117,76.199 -5.01690567e-14,46.896 C-0.009,44.47 1.622,42.232 4.006,41.773 C7.203,41.158 10,43.591 10,46.678 C10,70.565 29.065,90 52.5,90 C75.935,90 95,70.565 95,46.678 L95,10 L5.188,10 C2.785,10 0.575,8.39 0.104,6.033 C-0.54,2.819 1.901,0 5,0 L100,0 C102.761,0 105,2.238 105,5 L105,46.678 C105,76.08 81.449,100 52.5,100" id="Fill-1" fill="#FC4A1A" mask="url(#mask-2)"></path>
                    </g>
                    <path d="M162.5,100 C133.551,100 110,76.08 110,46.678 L110,5 C110,2.238 112.239,0 115,0 L209.812,0 C212.215,0 214.425,1.61 214.896,3.967 C215.54,7.181 213.099,10 210,10 L120,10 L120,46.678 C120,70.565 139.065,90 162.5,90 C185.871,90 204.896,70.671 205,46.873 C205.01,44.482 206.582,42.279 208.921,41.791 C212.154,41.115 215,43.563 215,46.678 C215,76.08 191.449,100 162.5,100" id="Fill-4" fill="#FC4A1A"></path>
                    <path d="M162.5,96 C135.757,96 114,73.874 114,46.678 L114,5 C114,4.447 114.448,4 115,4 L210,4 C210.552,4 211,4.447 211,5 C211,5.553 210.552,6 210,6 L116,6 L116,46.678 C116,72.771 136.86,94 162.5,94 C188.14,94 209,72.771 209,46.678 C209,46.125 209.448,45.678 210,45.678 C210.552,45.678 211,46.125 211,46.678 C211,73.874 189.243,96 162.5,96" id="Fill-6" fill="#FFFFFF"></path>
                </g>
                <g id="face" transform="translate(135.000000, 20.000000)">
                    <path d="M0,30 C0,46.568 13.432,60 30,60 C46.568,60 60,46.568 60,30 C60,13.432 46.568,0 30,0 C13.432,0 0,13.432 0,30" id="Fill-1" fill="#FC4A1A"></path>
                    <path d="M21.5918,32.1875 C23.6568,40.2685 33.0368,46.6465 39.3498,46.0055 C43.9038,45.5435 47.7438,39.6785 48.0898,31.3035 C48.4388,22.8705 42.6938,12.0145 35.4118,12.2995 C27.4388,12.6105 19.4378,23.7615 21.5918,32.1875" id="Fill-3" fill="#FFD7B0"></path>
                    <path d="M44.0264,26.7573 C44.1534,27.5733 44.6914,28.1193 45.2284,27.9773 C45.7654,27.8353 46.0994,27.0583 45.9734,26.2423 C45.8464,25.4263 45.3084,24.8803 44.7714,25.0223 C44.2344,25.1643 43.9004,25.9413 44.0264,26.7573" id="Fill-5" fill="#333333"></path>
                    <path d="M33.04,28.7573 C33.229,29.5733 34.036,30.1193 34.843,29.9773 C35.649,29.8353 36.149,29.0583 35.96,28.2423 C35.77,27.4263 34.964,26.8803 34.157,27.0223 C33.351,27.1643 32.851,27.9413 33.04,28.7573" id="Fill-7" fill="#333333"></path>
                    <path d="M40.9512,41.2598 C41.8132,41.0858 42.3902,40.3428 42.2402,39.5998 C42.0912,38.8578 41.6902,39.0558 40.8282,39.2298 C39.9672,39.4048 38.9692,39.4888 39.1192,40.2318 C39.2682,40.9738 40.0892,41.4338 40.9512,41.2598" id="Fill-9" fill="#FC4A1A"></path>
                    <path d="M41.7793,28.5366 C42.0713,29.6976 42.7113,30.7026 43.4423,31.6306 C43.9843,32.3166 44.9873,33.1116 44.9713,34.0676 C44.9593,34.9016 44.2113,35.4116 43.5073,35.6366 C42.5663,35.9366 41.5283,35.8706 40.6003,35.5436 C39.9623,35.3186 40.2953,34.3086 40.9363,34.5356 C41.6653,34.7916 42.4893,34.8586 43.2273,34.6076 C43.5313,34.5046 43.9893,34.3066 43.8913,33.8966 C43.8003,33.5136 43.3213,33.1386 43.0743,32.8446 C42.0543,31.6256 41.1453,30.3116 40.7513,28.7446 C40.5833,28.0776 41.6113,27.8716 41.7793,28.5366" id="Fill-11" fill="#FFC99C"></path>
                    <path d="M29.3496,42.6934 L29.3496,42.6934 C30.6026,44.3954 31.9566,46.5314 33.0896,48.7044 C33.7246,47.2094 34.3856,45.9314 34.6716,45.3964 C32.8846,44.8274 31.0626,43.9014 29.3496,42.6934" id="Fill-13" fill="#FFC99C"></path>
                    <path d="M47.917,21.3828 C46.82,11.4088 39.596,6.9078 32.067,7.9678 L28.662,8.4478 C28.648,8.4498 28.637,8.4548 28.623,8.4568 C27.214,8.1348 24.587,7.8498 21.694,9.1288 C17.402,11.0268 13.719,12.8008 9.408,27.5418 C7.692,33.4078 5.221,38.6318 2.865,42.8008 C7.67,52.9658 18.012,59.9998 30,59.9998 C31.387,59.9998 32.749,59.8978 34.086,59.7158 C34.594,59.2348 35,58.7508 35.265,58.2698 C36.951,55.1958 32.767,47.3348 29.35,42.6938 C26.4,40.6138 23.815,37.7118 22.379,34.4058 C22.528,31.8758 23.753,29.0298 24.794,27.0278 L34.68,25.3148 C35.012,25.1858 35.23,24.9408 35.326,24.6588 C35.813,22.4938 36.182,18.8018 36.182,18.8018 C36.374,20.8308 36.724,22.4618 36.57,24.4238 C36.52,24.7108 36.742,24.8948 37.142,24.8878 L39.37,24.5018 C39.62,24.3968 39.809,24.1538 39.839,23.8978 C39.867,23.2458 39.869,22.4578 39.789,21.5018 C39.687,20.2938 38.891,16.7808 38.891,16.7808 C40.221,20.1688 40.519,22.3678 40.541,23.6088 C40.572,23.9898 40.702,24.1828 40.911,24.2348 L41.646,24.1068 L43.283,23.8768 C43.437,23.8188 43.52,23.6808 43.541,23.5048 C43.638,20.8208 42.676,18.1408 42.676,18.1408 C44.162,20.4338 44.392,22.3398 44.386,23.3308 C44.385,23.5808 44.481,23.6658 44.635,23.6858 L46.561,23.4148 C47.447,23.2898 48.057,22.3758 47.917,21.3828" id="Fill-15" fill="#333333"></path>
                    <path d="M16.9297,28.9058 C16.7737,30.6628 18.0477,32.4818 19.1197,32.5768 C20.1917,32.6718 20.1987,31.7138 20.5577,30.0968 C20.7947,29.0288 21.3007,27.5828 21.0957,26.9658 C20.8907,26.3478 20.0667,25.9008 19.1517,25.8958 C18.0757,25.8888 17.0847,27.1488 16.9297,28.9058" id="Fill-17" fill="#FFD7B0"></path>
                </g>
            </g>
        </g>
    </g>
</svg>