<?xml version="1.0" encoding="UTF-8"?>
<svg width="107px" height="50px" viewBox="0 0 107 50" version="1.1" xmlns="http://www.w3.org/2000/svg" xmlns:xlink="http://www.w3.org/1999/xlink">
    <!-- Generator: Sketch 41.2 (35397) - http://www.bohemiancoding.com/sketch -->
    <title>logo-footer</title>
    <desc>Created with Sketch.</desc>
    <defs>
        <polygon id="path-1" points="26.12795 50 0 50 0 0 26.12795 0 52.2559 0 52.2559 50 26.12795 50"></polygon>
        <polygon id="path-3" points="26.87205 50 53 50 53 0 26.87205 0 0.7441 0 0.7441 50"></polygon>
    </defs>
    <g id="Symbols" stroke="none" stroke-width="1" fill="none" fill-rule="evenodd">
        <g id="layout/footer" transform="translate(-667.000000, -104.000000)">
            <g id="logo-footer" transform="translate(667.000000, 104.000000)">
                <g id="Group-3">
                    <mask id="mask-2" fill="white">
                        <use xlink:href="#path-1"></use>
                    </mask>
                    <g id="Clip-2"></g>
                    <path d="M26.1279,50 C11.7569,50 0.0589,38.155 -0.0001,23.572 C-0.0051,22.364 0.8079,21.25 1.9929,21.022 C3.5849,20.716 4.9769,21.927 4.9769,23.463 C4.9769,35.351 14.4649,45.023 26.1279,45.023 C37.7909,45.023 47.2789,35.351 47.2789,23.463 L47.2789,4.977 L2.5819,4.977 C1.3859,4.977 0.2859,4.175 0.0519,3.002 C-0.2681,1.403 0.9459,0 2.4879,0 L49.7679,0 C51.1419,0 52.2559,1.114 52.2559,2.488 L52.2559,23.463 C52.2559,38.096 40.5349,50 26.1279,50" id="Fill-1" fill="#FFFFFF" mask="url(#mask-2)"></path>
                </g>
                <g id="Group-6" transform="translate(54.000000, 0.000000)">
                    <mask id="mask-4" fill="white">
                        <use xlink:href="#path-3"></use>
                    </mask>
                    <g id="Clip-5"></g>
                    <path d="M26.8721,50 C12.4651,50 0.7441,38.096 0.7441,23.463 L0.7441,2.488 C0.7441,1.114 1.8581,0 3.2321,0 L50.4181,0 C51.6141,0 52.7141,0.801 52.9481,1.974 C53.2681,3.574 52.0541,4.977 50.5121,4.977 L5.7211,4.977 L5.7211,23.463 C5.7211,35.351 15.2091,45.023 26.8721,45.023 C38.5031,45.023 47.9721,35.404 48.0231,23.56 C48.0281,22.371 48.8101,21.274 49.9751,21.031 C51.5831,20.694 53.0001,21.913 53.0001,23.463 C53.0001,38.096 41.2791,50 26.8721,50" id="Fill-4" fill="#FFFFFF" mask="url(#mask-4)"></path>
                </g>
                <path d="M80.8721,48.0093 C67.5621,48.0093 56.7351,36.9973 56.7351,23.4633 L56.7351,2.4883 C56.7351,2.2133 56.9581,1.9903 57.2321,1.9903 L104.5121,1.9903 C104.7861,1.9903 105.0101,2.2133 105.0101,2.4883 C105.0101,2.7633 104.7861,2.9863 104.5121,2.9863 L57.7301,2.9863 L57.7301,23.4633 C57.7301,36.4493 68.1111,47.0143 80.8721,47.0143 C93.6331,47.0143 104.0141,36.4493 104.0141,23.4633 C104.0141,23.1883 104.2361,22.9653 104.5121,22.9653 C104.7861,22.9653 105.0101,23.1883 105.0101,23.4633 C105.0101,36.9973 94.1821,48.0093 80.8721,48.0093" id="Fill-7" fill="#FC4A1A"></path>
            </g>
        </g>
    </g>
</svg>